<?xml version="1.0" standalone="no"?>
<!DOCTYPE svg PUBLIC "-//W3C//DTD SVG 20010904//EN"
 "http://www.w3.org/TR/2001/REC-SVG-20010904/DTD/svg10.dtd">
<svg version="1.0" xmlns="http://www.w3.org/2000/svg"
 width="467.000000pt" height="535.000000pt" viewBox="0 0 467.000000 535.000000"
 preserveAspectRatio="xMidYMid meet">

<g transform="translate(0.000000,535.000000) scale(0.100000,-0.100000)"
fill="#000000" stroke="none">
<path d="M2230 5253 c-177 -90 -988 -501 -1795 -909 l-380 -193 -7 -238 c-3
-131 -12 -548 -18 -928 -6 -379 -15 -874 -20 -1100 -7 -315 -6 -413 3 -421 7
-6 385 -251 842 -544 766 -493 949 -610 1125 -725 36 -23 114 -74 175 -114 60
-39 115 -71 122 -71 8 0 544 265 1192 590 l1178 590 7 1072 c3 590 9 1186 12
1324 l7 250 -559 374 c-308 205 -816 545 -1129 755 l-571 382 -184 -94z m282
-202 c327 -217 959 -629 1123 -733 266 -167 475 -300 670 -425 104 -68 194
-124 199 -126 4 -1 1 -250 -8 -552 -9 -303 -21 -856 -26 -1229 -6 -374 -12
-681 -13 -682 -1 -1 -277 -139 -613 -307 -336 -167 -649 -325 -695 -349 -91
-49 -242 -128 -610 -317 l-236 -121 -104 69 c-57 37 -169 111 -249 163 -80 52
-246 161 -370 243 -124 81 -349 227 -500 323 -151 96 -306 195 -345 219 -38
25 -164 105 -280 178 -116 73 -221 142 -234 152 l-23 19 11 379 c15 503 31
1326 31 1650 0 143 3 296 6 341 l7 80 581 292 c319 160 667 336 771 390 105
54 307 158 450 232 143 74 278 144 300 157 22 12 43 23 47 23 3 0 53 -31 110
-69z"/>
<path d="M2295 5016 c-280 -150 -864 -449 -1401 -718 l-602 -302 -6 -535 c-7
-532 -31 -1560 -41 -1761 l-6 -105 292 -185 c161 -102 311 -197 333 -211 23
-15 142 -91 266 -169 124 -79 315 -202 425 -274 110 -73 272 -179 359 -236 88
-58 212 -139 275 -181 l116 -77 245 126 c135 69 364 188 510 264 146 76 511
260 811 410 l546 271 7 546 c4 300 11 742 17 981 6 239 12 536 12 659 l2 225
-280 178 c-154 98 -307 196 -340 217 -33 21 -166 105 -295 188 -225 143 -522
337 -940 613 -107 71 -197 129 -200 129 -3 0 -50 -24 -105 -53z m-535 -896
c157 -56 327 -117 378 -136 l92 -34 600 0 600 0 0 -60 c0 -40 -7 -74 -19 -98
-32 -63 -118 -135 -225 -188 l-99 -49 -449 4 -448 3 0 -52 c0 -42 -4 -55 -22
-70 -13 -10 -26 -16 -31 -13 -12 7 -57 100 -57 118 0 21 -176 22 -206 0 -30
-20 -47 -68 -40 -109 8 -39 64 -95 99 -97 12 -1 213 -3 447 -3 456 -2 546 -9
720 -60 246 -71 370 -253 410 -601 5 -49 9 -184 9 -300 l-1 -210 -14 80 c-37
210 -127 376 -265 492 -67 55 -250 146 -349 172 -188 51 -300 63 -615 68 -165
3 -363 0 -440 -5 l-140 -10 -54 26 c-29 15 -84 56 -122 90 -54 50 -78 82 -109
145 -78 160 -73 307 16 478 16 30 31 58 33 63 6 15 -126 -3 -185 -25 -71 -27
-115 -71 -141 -143 l-21 -58 23 -112 c34 -169 85 -267 194 -376 93 -92 166
-136 312 -184 200 -67 540 -90 964 -66 324 18 290 21 372 -33 172 -114 273
-297 273 -490 -1 -193 -117 -392 -278 -473 l-57 -29 -861 -3 -861 -2 -6 30
c-14 69 28 167 100 229 26 23 93 65 149 92 l101 50 599 -1 599 -2 28 33 c25
27 28 38 24 71 -3 22 -14 49 -24 60 -45 50 -46 50 -522 52 -460 2 -524 7 -686
47 -201 51 -337 178 -398 374 -44 137 -50 209 -56 614 l-6 394 -108 30 c-59
16 -107 33 -105 37 2 5 82 68 178 141 96 73 206 156 243 185 l68 52 52 -18
c29 -10 180 -64 337 -120z m-353 -2459 c38 -18 73 -61 73 -91 0 -5 -21 -10
-46 -10 -37 0 -50 5 -65 24 -23 29 -70 39 -119 26 -42 -11 -58 -36 -37 -57 8
-8 53 -23 100 -33 136 -30 178 -61 180 -135 2 -76 -71 -127 -187 -129 -118 -2
-192 39 -211 117 -7 27 -6 27 43 27 42 0 52 -3 57 -20 10 -31 49 -52 99 -52
58 0 84 9 96 33 21 37 -3 56 -100 78 -106 24 -141 40 -164 75 -34 53 -8 123
58 152 47 20 173 17 223 -5z m442 -103 c33 -68 75 -156 94 -196 l35 -73 63 78
c34 43 69 85 76 94 12 14 4 28 -62 110 -41 52 -75 97 -75 102 0 4 24 7 54 7
53 0 53 0 100 -60 26 -33 51 -60 55 -60 4 0 29 27 54 60 l47 60 55 0 c30 0 55
-2 55 -4 0 -2 -34 -46 -75 -97 -41 -52 -75 -97 -75 -100 0 -6 110 -146 158
-201 14 -17 11 -18 -46 -18 l-61 0 -53 69 c-29 39 -56 70 -60 70 -3 1 -30 -30
-59 -69 l-54 -70 -96 0 -95 0 -23 50 -23 50 -100 0 -100 0 -21 -50 -21 -50
-52 0 -53 0 24 53 c36 82 160 341 168 355 5 7 29 12 58 12 l50 0 58 -122z
m681 -88 l0 -210 -50 0 -50 0 0 210 0 210 50 0 50 0 0 -210z m420 175 l0 -35
-75 0 -75 0 0 -175 0 -175 -50 0 -50 0 0 175 0 175 -75 0 -75 0 0 35 0 35 200
0 200 0 0 -35z m390 0 l0 -35 -135 0 -135 0 0 -45 0 -45 118 0 c64 0 123 -4
130 -9 8 -5 12 -21 10 -37 l-3 -29 -127 -3 -128 -3 0 -54 0 -55 140 0 140 0 0
-35 0 -35 -187 2 -188 3 -3 195 c-1 107 0 200 2 207 4 10 48 13 186 13 l180 0
0 -35z m160 -145 l0 -170 125 0 125 0 0 -35 0 -35 -175 0 -175 0 0 205 0 205
50 0 50 0 0 -170z m-2232 -322 c21 -21 13 -30 -18 -23 -39 8 -39 -3 0 -16 16
-6 32 -20 35 -30 12 -36 -30 -64 -73 -48 -25 9 -30 39 -7 39 8 0 15 -4 15 -10
0 -13 27 -13 35 0 4 6 -7 15 -24 21 -34 12 -49 43 -31 64 15 18 52 19 68 3z
m109 -25 c8 -21 20 -49 25 -62 l9 -25 18 30 c18 28 18 30 -1 62 -22 35 -8 44
24 16 16 -16 18 -16 24 0 7 19 34 22 34 4 0 -7 -7 -22 -15 -32 -13 -17 -12
-23 6 -53 20 -33 20 -33 1 -33 -11 0 -23 7 -26 16 -6 16 -8 16 -24 0 -20 -17
-72 -22 -72 -6 0 6 -11 10 -24 10 -14 0 -28 -4 -31 -10 -3 -5 -12 -10 -20 -10
-10 0 -9 14 8 65 12 37 27 65 35 65 7 0 20 -17 29 -37z m181 -31 c2 -51 0 -62
-13 -62 -12 0 -15 13 -15 66 0 48 3 65 13 62 7 -3 13 -28 15 -66z m102 53 c0
-10 -10 -15 -30 -15 -16 0 -30 -4 -30 -10 0 -5 11 -10 25 -10 16 0 25 -6 25
-15 0 -9 -9 -15 -25 -15 -20 0 -25 -5 -25 -25 0 -16 -6 -25 -15 -25 -12 0 -15
13 -15 58 0 32 3 62 7 65 3 4 24 7 45 7 27 0 38 -4 38 -15z m94 9 c17 -7 22
-49 6 -59 -6 -3 -5 -15 2 -31 14 -30 20 -24 44 44 24 69 42 65 71 -16 19 -51
20 -62 8 -62 -8 0 -15 5 -15 10 0 6 -13 10 -30 10 -16 0 -30 -4 -30 -10 0 -5
-13 -10 -30 -10 -20 0 -35 8 -46 25 -9 14 -20 25 -25 25 -5 0 -9 -11 -9 -25 0
-16 -6 -25 -15 -25 -12 0 -15 13 -15 58 0 32 3 62 7 65 8 9 56 9 77 1z m250
-10 c24 -23 20 -26 -23 -19 -34 6 -40 4 -46 -14 -7 -24 10 -61 30 -61 20 0 27
17 10 24 -26 10 -16 26 16 26 28 0 30 -2 27 -32 -2 -24 -9 -33 -28 -38 -71
-19 -116 62 -64 115 20 20 58 19 78 -1z m126 1 c0 -10 -11 -15 -35 -15 -19 0
-35 -4 -35 -10 0 -5 14 -10 30 -10 20 0 30 -5 30 -15 0 -10 -10 -15 -31 -15
-41 0 -33 -24 9 -28 49 -5 38 -22 -13 -22 l-45 0 0 65 0 65 45 0 c33 0 45 -4
45 -15z m150 1 c0 -7 -9 -16 -19 -19 -16 -4 -18 -11 -14 -51 5 -38 3 -46 -11
-46 -13 0 -16 10 -16 50 0 43 -3 50 -20 50 -11 0 -20 7 -20 15 0 11 12 15 50
15 36 0 50 -4 50 -14z m100 -1 c0 -10 -10 -15 -30 -15 -16 0 -30 -4 -30 -10 0
-5 14 -10 31 -10 38 0 35 -24 -4 -28 -38 -5 -35 -32 3 -32 17 0 30 -4 30 -10
0 -5 -20 -10 -45 -10 l-45 0 0 65 0 65 45 0 c33 0 45 -4 45 -15z m108 3 c21
-21 13 -29 -22 -23 -38 8 -50 -9 -40 -51 7 -28 29 -31 43 -6 8 13 12 14 22 5
18 -18 -6 -43 -42 -43 -52 0 -75 72 -37 117 13 16 60 17 76 1z m52 -13 c0 -20
5 -25 25 -25 20 0 25 5 25 25 0 14 5 25 10 25 6 0 10 -28 10 -65 0 -37 -4 -65
-10 -65 -5 0 -10 11 -10 25 0 20 -5 25 -25 25 -20 0 -25 -5 -25 -25 0 -16 -6
-25 -15 -25 -12 0 -15 13 -15 58 0 32 3 62 7 65 13 14 23 6 23 -18z m137 -6
l18 -30 5 27 c3 15 11 29 18 32 9 3 12 -14 12 -62 0 -78 -18 -88 -49 -28 l-20
37 -1 -37 c0 -27 -4 -38 -15 -38 -12 0 -15 14 -15 65 0 74 16 86 47 34z m160
23 c6 -4 17 -20 22 -36 22 -55 -29 -108 -80 -82 -31 15 -39 84 -14 110 17 17
52 21 72 8z m71 -50 c3 -50 4 -52 33 -52 16 0 29 -4 29 -10 0 -5 -20 -10 -45
-10 l-45 0 0 66 c0 48 3 65 13 62 7 -3 13 -26 15 -56z m142 3 c0 -54 0 -55 30
-55 17 0 30 -4 30 -10 0 -5 -20 -10 -45 -10 l-45 0 0 65 c0 51 3 65 15 65 12
0 15 -13 15 -55z m100 -10 c0 -51 -3 -65 -15 -65 -12 0 -15 14 -15 65 0 51 3
65 15 65 12 0 15 -14 15 -65z m65 25 l12 -35 7 38 c5 28 12 37 26 37 18 0 20
-7 20 -65 0 -51 -3 -65 -15 -65 -8 0 -16 8 -16 18 -1 16 -2 16 -6 -1 -7 -28
-37 -16 -44 18 l-7 30 -1 -32 c-1 -22 -6 -33 -16 -33 -12 0 -15 14 -15 66 0
61 1 65 22 62 14 -2 25 -15 33 -38z m115 -25 c0 -51 -3 -65 -15 -65 -12 0 -15
14 -15 65 0 51 3 65 15 65 12 0 15 -14 15 -65z m203 50 c1 -5 -13 -11 -30 -13
-41 -4 -43 -22 -3 -22 20 0 30 -5 30 -15 0 -10 -10 -15 -30 -15 -20 0 -30 -5
-30 -15 0 -10 11 -15 35 -15 19 0 35 -4 35 -10 0 -5 -22 -10 -50 -10 l-50 0 0
54 c0 49 -2 54 -20 49 -17 -4 -20 -14 -20 -54 0 -37 -4 -49 -15 -49 -11 0 -15
12 -15 50 0 38 -4 50 -15 50 -8 0 -15 7 -15 15 0 12 17 14 95 12 53 -1 96 -6
98 -12z m97 5 c27 -14 35 -65 16 -95 -13 -20 -25 -25 -56 -25 l-40 0 0 58 c0
32 3 62 7 65 10 10 52 8 73 -3z"/>
<path d="M1296 3964 c-58 -18 -111 -52 -133 -86 -15 -21 -13 -20 13 4 78 73
245 98 425 64 100 -19 106 -19 93 -6 -15 15 -182 40 -268 39 -44 0 -103 -7
-130 -15z"/>
<path d="M1361 3940 c-79 -12 -133 -36 -172 -76 l-34 -37 46 35 c25 19 68 41
95 49 54 15 180 18 289 7 45 -5 62 -5 48 1 -18 8 -206 34 -215 30 -2 -1 -27
-5 -57 -9z"/>
<path d="M1310 3896 c-52 -13 -107 -45 -136 -77 -14 -16 -7 -14 26 9 76 51
147 66 282 59 120 -5 161 5 66 17 -81 9 -188 6 -238 -8z"/>
<path d="M1288 3854 c-28 -9 -65 -32 -95 -60 -48 -46 -48 -46 -4 -10 63 51
134 69 264 69 59 -1 107 3 107 8 0 15 -220 9 -272 -7z"/>
<path d="M1321 3825 c-56 -13 -132 -52 -147 -77 -9 -14 13 -9 25 6 28 34 115
59 219 64 63 3 98 8 90 13 -19 13 -114 9 -187 -6z"/>
<path d="M1305 3786 c-59 -19 -97 -41 -125 -73 l-25 -28 25 22 c48 42 120 66
210 71 47 2 89 8 95 13 14 14 -134 10 -180 -5z"/>
<path d="M1703 1507 c-17 -42 -29 -78 -25 -81 3 -3 32 -6 64 -6 40 0 58 4 58
13 0 7 -15 43 -33 81 l-32 68 -32 -75z"/>
<path d="M1340 1126 c0 -9 5 -16 10 -16 6 0 10 4 10 9 0 6 -4 13 -10 16 -5 3
-10 -1 -10 -9z"/>
<path d="M1700 1150 c0 -5 9 -10 20 -10 11 0 20 5 20 10 0 6 -9 10 -20 10 -11
0 -20 -4 -20 -10z"/>
<path d="M1830 1126 c0 -9 5 -16 10 -16 6 0 10 4 10 9 0 6 -4 13 -10 16 -5 3
-10 -1 -10 -9z"/>
<path d="M2784 1146 c-11 -29 0 -61 21 -61 16 0 21 8 23 38 3 32 0 37 -18 37
-11 0 -23 -6 -26 -14z"/>
<path d="M3580 1120 c0 -45 21 -55 40 -20 15 28 3 60 -21 60 -16 0 -19 -7 -19
-40z"/>
</g>
</svg>
